<?xml version="1.0" encoding="UTF-8" standalone="no"?>
<!DOCTYPE svg PUBLIC "-//W3C//DTD SVG 1.1//EN"
"http://www.w3.org/Graphics/SVG/1.1/DTD/svg11.dtd">


<!-- Page 1 -->
<svg x="0" y="0" width="500" height="15840" viewBox="0 0 13200 15840" version="1.1" xmlns="http://www.w3.org/2000/svg" xmlns:xlink="http://www.w3.org/1999/xlink"
style="display: block;margin-left: auto;margin-right: auto;">
<defs>

<style type="text/css"><![CDATA[

.g0_1{
fill: #747678;
}
.g1_1{
fill: #5C4D00;
}
.g2_1{
fill: #223669;
}

]]></style>

</defs>
<path d="M0,0
L0,15840
L13200,15840
L13200,0 Z " 
fill="#FFFFFF" stroke="none" />
<path d="M2168.1,8113.6v-19.9c40.8,-4.3,43.5,-8,43.5,-56.3l-.6,-209.3c-38.6,92.3,-81,194.3,-119.6,285.5h-17.7c-34.9,-87.5,-73,-187.3,-111.6,-281.2c-7,168.5,-7,201.8,-7,221.1c.5,29,11.3,36.5,51.5,40.2v19.9H1873.5v-19.9c30.6,-2.7,44.6,-8.6,48.8,-40.8c2.2,-16.1,4.3,-46.6,16.7,-223.7c1.6,-25.8,-2.2,-40.3,-48.3,-44.6v-19.8h115.9l103.6,236.6l104.1,-236.6h113.2v19.8c-42.9,4.3,-47.8,8.6,-46.7,51.6l4.3,201.2c.5,48.3,2.7,50.4,46.1,56.3v19.9Z" class="g0_1" />
<path d="M2607,7872.1c-36.4,0,-62.2,33.8,-62.2,104.1c0,70.8,26.3,122.9,72.4,122.9c33.3,0,60.7,-27.9,60.7,-105.7c0,-71.9,-24.7,-121.3,-70.9,-121.3m4.9,-22c89.6,0,144.3,59.6,144.3,131.5c0,90.7,-67.6,138.9,-144.3,138.9c-93.9,0,-144.9,-63.8,-144.9,-133c0,-90.2,74.6,-137.4,144.9,-137.4Z" class="g0_1" />
<path d="M3136.7,7932.2c-5.4,-18.8,-11.3,-32.7,-18.8,-40.8c-6.5,-7,-12.4,-10.7,-36,-10.7h-19.3v169.6c0,38.1,3.2,39.1,41.9,43.4v19.9H2952.6v-19.9c36.5,-4.8,40.3,-5.9,40.3,-43.4V7880.7H2980c-26.9,0,-34.4,4.3,-41.3,12.3c-7,7.5,-13.5,23.1,-18.8,39.2H2900c1.6,-13.9,4.9,-63.9,5.4,-84.8h13.4c6.4,8.6,10.7,10.2,25.2,10.2h171.2c14,0,15.6,-2.7,22.5,-10.2h13.4c.6,20.4,3.3,61.7,5.4,83.7Z" class="g0_1" />
<path d="M3443.6,7872.1c-36.5,0,-62.3,33.8,-62.3,104.1c0,70.8,26.3,122.9,72.5,122.9c33.3,0,60.6,-27.9,60.6,-105.7c0,-71.9,-24.7,-121.3,-70.8,-121.3m4.8,-22c89.6,0,144.4,59.6,144.4,131.5c0,90.7,-67.6,138.9,-144.4,138.9c-93.9,0,-144.9,-63.8,-144.9,-133c0,-90.2,74.6,-137.4,144.9,-137.4Z" class="g0_1" />
<path d="M3858.9,7984.8c16.6,0,30.1,-2.2,41.3,-9.7c11.8,-8.6,16.7,-22,16.7,-40.8c0,-38.6,-21,-55.8,-49.4,-55.8c-15,0,-22,4.3,-22,18.3v88Zm167.4,132h-18.7c-61.8,0,-78.4,-13.4,-92.9,-34.3c-13.4,-18.8,-24.1,-39.8,-35.4,-60.7c-6.4,-11.8,-10.7,-16.1,-25.2,-16.1h-8.6v47.8c0,34.9,4.8,37,38.1,40.2v19.9H3740.3v-19.9c33.3,-3.2,37,-5.9,37,-39.7V7917.7c0,-34.3,-4.2,-38.1,-37,-40.2v-19.9H3890c32.8,0,53.2,3.2,70.9,13.4c18.7,10.2,30,28.5,30,52.1c0,36.5,-26.3,57.4,-54.7,66.5c7,13.4,24.7,40.8,37.5,59.6c13.5,18.2,21,28.4,30.6,37c7.5,7,17.2,9.1,24.7,11.3Z" class="g0_1" />
<path d="M4484.6,8021.3c-7.5,26.8,-21.5,67.6,-30.1,86.4c-13.9,3.2,-57.9,13.9,-98.7,13.9c-144.3,0,-203.9,-92.8,-203.9,-178.1c0,-111.1,84.8,-186.2,213.6,-186.2c46.6,0,88,11.2,101.4,12.9c2.7,25.2,6.4,64.9,10.2,88.5l-21.5,3.7c-11.3,-41.8,-27.4,-61.7,-55.8,-72.9c-12.9,-5.4,-32.2,-7.5,-46.7,-7.5c-77.8,0,-117,64.9,-117,149.1c0,98.2,50.5,164.8,124,164.8c45.1,0,75.1,-23.6,104.1,-82.7Z" class="g1_1" />
<path d="M4777,7872.1c-36.5,0,-62.2,33.8,-62.2,104.1c0,70.8,26.3,122.9,72.4,122.9c33.3,0,60.6,-27.9,60.6,-105.7c0,-71.9,-24.6,-121.3,-70.8,-121.3m4.8,-22c89.7,0,144.4,59.6,144.4,131.5c0,90.7,-67.6,138.9,-144.4,138.9c-93.9,0,-144.8,-63.8,-144.8,-133c0,-90.2,74.6,-137.4,144.8,-137.4Z" class="g1_1" />
<path d="M5183.7,7932.7l-34.3,80h66.5Zm32.2,180.9v-18.3l10.2,-1c20.4,-2.2,21,-7.6,13.5,-25.3l-13.5,-30h-85.8c-3.2,7.5,-7.5,19.3,-11.3,31.1c-4.8,16.1,-2.1,20.4,16.7,23.1l13.9,2.1v18.3H5053.9v-18.3c25.7,-3.2,35.4,-6.9,48.8,-38.6l91.2,-202.8l24.7,-3.8l92.9,213c10.2,24.2,19.3,29.5,44.5,32.2v18.3Z" class="g1_1" />
<path d="M5742.3,8038.4c-4.8,20.4,-15,58.5,-20.9,70.9c-17.2,3.7,-43.5,11.2,-81,11.2c-108.9,0,-156.2,-66,-156.2,-133c0,-83.2,67.6,-137.4,164.8,-137.4c37,0,62.2,7.5,78.9,9.1c1.6,22,3.2,45.6,7.5,74.1l-19.9,4.3c-16.6,-49.9,-41.8,-65.5,-74.6,-65.5c-45.6,0,-78.9,41.3,-78.9,108.4c.6,71.9,32.2,117.5,83.2,117.5c33.3,0,53.1,-17.2,77.3,-66Z" class="g1_1" />
<path d="M6063.2,8113.6v-19.9c31.1,-2.1,34.4,-5.9,34.4,-42.9v-59.6h-99.3v59.6c0,36.5,1.1,39.7,34.3,42.9v19.9h-140v-19.9c33.8,-2.7,36.5,-5.9,36.5,-42.9V7919.9c0,-37.1,-3.2,-39.7,-36.5,-42.4v-19.9h140v19.9c-31.1,2.1,-34.3,4.8,-34.3,41.8v46.2h99.3v-46.2c0,-36.5,-3.8,-40.8,-34.9,-41.8v-19.9h140.6V7878c-33.3,2.2,-36.5,4.8,-36.5,41.3v131.5c0,37,1.1,40.8,36.5,42.9v19.9Z" class="g1_1" />
<path d="M7557.7,7853.9v214.6h62.2c66.3,0,109.6,-44.6,109.6,-106.4v-.9c0,-61.7,-43.3,-107.3,-109.6,-107.3Zm-55.5,-50.5h117.7c99.2,0,167.7,68.1,167.7,156.9v.9c0,88.9,-68.5,157.8,-167.7,157.8H7502.2Z" class="g2_1" />
<path d="M8038.3,7803.4h55.5V8119h-55.5V7803.4Z" class="g2_1" />
<path d="M8495,7959.9c39.7,0,65,-20.8,65,-52.8v-.9c0,-33.8,-24.4,-52.3,-65.4,-52.3h-80.7v106ZM8358.4,7803.4h140.7c39.7,0,70.8,11.7,91.1,31.6c16.7,17.1,26.1,40.6,26.1,68.1v.9c0,51.8,-31.1,82.9,-74.8,95.6l85.2,119.4h-65.8l-77.6,-110h-69.4v110h-55.5Z" class="g2_1" />
<path d="M8864.7,7803.4h234.1V7853H8920.2v82.1h158.3v49.6H8920.2v84.7H9101V8119H8864.7Z" class="g2_1" />
<path d="M9333.2,7962.1v-.9c0,-89.7,67.2,-163.2,162.8,-163.2c58.1,0,93.3,20.3,123.5,49.2l-35.6,41c-25.3,-23.5,-52.3,-39.2,-88.4,-39.2c-59.9,0,-104.1,49.6,-104.1,111.3v.9c0,61.8,43.7,111.9,104.1,111.9c38.8,0,63.6,-15.4,90.6,-40.6l35.7,36c-32.9,34.3,-69,55.9,-128.1,55.9c-92,0,-160.5,-71.6,-160.5,-162.3Z" class="g2_1" />
<path d="M9937.8,7854.8H9837.7v-51.4h256.1v51.4H9993.7V8119h-55.9Z" class="g2_1" />
<path d="M5415.6,8191.1c19.2,12.8,38.1,25.5,56.7,38.1c19,12.9,37.9,25.7,56.8,38.3c34.5,23,70.2,46.3,109.1,69.1c40.2,23.5,83.8,46.6,133.4,67.8c51.2,21.7,109.1,41.5,175.3,55.2c68.3,14.1,145.9,21.6,229.3,13.9c42.7,-4.1,87.5,-12.5,132.5,-27c45.8,-14.8,91.6,-35.9,134.5,-64.5c43.6,-29.1,84.1,-66.1,117.7,-110.5c34.2,-45.3,61.2,-98.4,77.2,-156.7c.1,-.5,.3,-1.1,.4,-1.6c.2,-.5,.3,-1,.4,-1.5c.2,-.6,.3,-1.1,.5,-1.6c.1,-.5,.2,-1,.4,-1.6c17.5,-67.2,20.7,-141.9,6.1,-216.9c-14.8,-76.5,-48.1,-152.8,-99.4,-219.6c-52.1,-68.1,-122.6,-125.9,-206,-166.5c-84.6,-41.6,-182,-65.1,-282.6,-70.5c-30.3,-1.6,-60.7,-1.7,-91.2,-.4c-43.1,31,-87.7,61.9,-133.7,92.8c49.6,-6.4,101.9,-9.2,155.2,-6.6c76.6,3.8,154.9,19.1,227.5,48.7c63.1,25.7,121,62,169.2,107.3c47.6,44.5,85.6,97.5,111.2,154.4c25.3,55.9,38.6,115.5,40,173.3c1.4,56.9,-8.7,112,-28.2,161.3c-17.2,43.5,-41.8,82.9,-71.5,116.7c-29.2,33.3,-63.3,61.1,-99.8,83.2c-35.8,21.8,-73.8,38.2,-112,49.8c-37.5,11.5,-75.2,18.3,-111.3,21.7c-71.9,6.6,-139.9,.6,-201,-11.3C5853.1,8414.2,5799.9,8397,5752,8377.5c-46.4,-18.8,-88.2,-39.8,-127.1,-61.4c-37.7,-21,-72.9,-42.7,-107,-64.2c-18.8,-12,-37.5,-24,-56.4,-36.2c-18.6,-11.9,-37.4,-24,-56.5,-36.1c-6.6,-4.2,-13.4,-8.4,-20.1,-12.6v3.9c10.4,6.7,20.6,13.5,30.7,20.2Z" class="g0_1" />
<path d="M5417.4,8203.6c18.4,13.5,36.3,27,53.8,40.4c17.9,13.7,35.4,27.3,52.8,40.8c32.4,25,65.4,50.4,101.2,76c37.1,26.4,77.4,53,124.6,79.2c49,27.1,105.6,54,174.3,77.7c71.1,24.4,155.8,45.8,255,54.5c51.6,4.4,108.1,5.1,168,-.7c61.2,-5.9,126,-18.6,191.1,-41.7c66.6,-23.5,133.6,-58,195.3,-106.1c63.2,-49.3,120.7,-113.3,164.4,-191.8c50.1,-89.9,82.5,-201.7,81,-324.4c-1.4,-125.8,-39.4,-263.4,-127.3,-383.6c-90.2,-123.6,-234.3,-227.3,-432.3,-269.3c-59.6,-12.7,-124,-19.8,-192.6,-20.4c-47.2,39.3,-96.9,78.8,-149.1,118.5c2.3,0,4.6,0,6.9,0c77.6,.1,151.6,9.3,219.9,27.2c67.6,17.7,129.6,43.8,184.4,76.8c54.1,32.6,101.2,71.9,140.5,115.7c27.9,31,51.9,64.4,71.9,99.2c19.8,34.4,35.7,70.2,47.7,106.5c11.9,36,20,72.4,24.6,108.5c4.5,35.7,5.6,71.2,3.5,105.6c-.6,9.6,-1.4,19.1,-2.5,28.5c-1,9.4,-2.3,18.7,-3.8,27.9c-1.6,9.2,-3.3,18.3,-5.2,27.3c-2,8.9,-4.1,17.8,-6.5,26.5c-19.4,72,-53,136.3,-95.3,190c-41.4,52.6,-90.9,94.9,-143.5,127.3c-51.4,31.8,-105.8,54.1,-159.3,68.9c-52.3,14.5,-103.9,21.9,-152.2,24.4c-93.3,4.8,-177.8,-6.8,-250.6,-24.3c-70.4,-17.1,-130.5,-39.9,-182.9,-64.1c-50.7,-23.4,-94.4,-48.3,-134.5,-73.4c-38.7,-24.3,-74.1,-48.8,-108.3,-73c-18.6,-13.1,-37.1,-26.4,-55.9,-39.8c-18.4,-13.1,-37,-26.3,-56.1,-39.5c-11.7,-8.1,-23.5,-16.2,-35.5,-24.3v5.5c11,7.8,21.9,15.6,32.5,23.5Z" class="g1_1" />
<path d="M7303.7,7748.3c-23.3,-176,-107.7,-367.6,-289.9,-508.8c-105.5,-81.1,-244.4,-144.7,-423.6,-168.2c-53.3,-6.9,-110.4,-10.2,-171,-9.2c-26.3,25.4,-53.8,51,-82.4,76.8c35.4,-.1,69.7,1.5,102.6,4.5c35.2,3.2,69.1,8.1,101.4,14.4c32.3,6.4,63.1,14.2,92.6,23.3c202.7,63,338.5,186.1,419.9,321.6c79.3,132.1,108,275.7,103.1,405.5c-4.7,126.6,-40.6,240.7,-92.8,334.3c-50.8,91.3,-116.9,163.7,-187.3,218.5c-71.8,55.9,-149.4,94.9,-225.9,121.2c-74.8,25.6,-148.7,39.2,-218.2,45c-68,5.7,-132,4.1,-190.6,-1.5c-57.3,-5.6,-109.6,-15,-156.7,-26.2c-90.4,-21.6,-164.5,-49.7,-226.1,-78.1c-59.5,-27.6,-107.9,-56,-150.1,-83.8c-40.8,-27,-75.9,-53.7,-108.9,-80c-31.9,-25.5,-61.9,-50.7,-91.9,-75.6c-16.2,-13.4,-32.5,-26.9,-49.3,-40.4c-16.6,-13.3,-33.5,-26.7,-51.1,-40.1c-7.4,-5.7,-15,-11.4,-22.6,-17v3.5c3.8,2.9,7.6,5.9,11.4,8.8c16.8,13.1,33,26.2,48.6,39.2c16,13.3,31.3,26.5,46.4,39.5c28,24.4,55.4,49,83.9,73.9c29.4,25.7,59.9,51.6,94.5,78.1c35.9,27.3,76.2,55.3,125.5,83.7c51,29.4,112,59.6,188.1,87.8c39.5,14.6,83.6,28.7,132.9,41.2c50.3,12.7,106.2,23.7,167.5,30.9c62.7,7.2,131.4,10.5,204.8,6.2c75.1,-4.5,155.3,-16.9,237.3,-42.1c90.1,-27.8,184.2,-71.9,272.1,-139.8c90.4,-69.7,174.5,-165.7,233.5,-289.6c60.8,-127.3,94.6,-286.1,72.3,-457.5Z" class="g2_1" />
<path d="M8083.9,8458c-13.6,0,-25.3,9.3,-35.1,28c-9.9,18.6,-14.8,41.6,-14.8,68.9c0,14.5,2.5,25.5,7.5,33.1c4.9,7.7,12.2,11.5,21.7,11.5c14.3,0,26.4,-9.2,36.4,-27.6c10.1,-18.3,15.1,-40.8,15.1,-67.5c0,-15.8,-2.6,-27.5,-7.6,-35.1c-5,-7.5,-12.8,-11.3,-23.2,-11.3m7.6,-17.1c17.4,0,30.7,5.5,39.8,16.3c9.1,10.8,13.6,26.7,13.6,47.5c0,12,-2.3,24.7,-7,38.3c-4.7,13.5,-11,25.7,-19,36.6c-8.6,11.7,-18.3,20.7,-29.1,27c-10.8,6.3,-22.2,9.4,-34.2,9.4c-15.7,0,-28.2,-5.7,-37.5,-17.1c-9.3,-11.3,-14,-26.6,-14,-45.7c0,-14.1,2.3,-28,6.9,-41.4c4.5,-13.5,11.1,-25.7,19.7,-36.6c8.4,-10.9,18,-19.3,28.7,-25.3c10.7,-6,21.4,-9,32.1,-9Z" class="g0_1" />
<path d="M8246.4,8491.4l28.4,-27.8c10,-9.5,17.5,-15.7,22.6,-18.8c5.1,-3,10,-4.6,14.5,-4.6c7.8,0,14.1,3.4,18.9,10.2c4.9,6.8,7.3,15.8,7.3,26.9c0,11.4,-2.9,28.9,-8.6,52.7c-5.7,23.7,-8.6,40.6,-8.6,50.7c0,3,.6,5.3,1.8,6.9c1.1,1.6,2.8,2.4,5,2.4c1.1,0,2.4,-.5,4,-1.3c1.6,-.9,3.1,-2.1,4.7,-3.6l13.3,-13.1l6.2,9.4l-19.2,19.5c-4.6,4.7,-9.1,8.3,-13.6,11c-4.5,2.7,-8.5,4.1,-11.9,4.1c-5.8,0,-10.6,-2.6,-14.3,-7.7c-3.7,-5.1,-5.5,-11.8,-5.5,-20.1c0,-9.9,3,-27.5,8.9,-52.6c6,-25.2,9,-43.5,9,-54.9c0,-4.4,-.9,-7.9,-2.7,-10.5c-1.8,-2.6,-4.3,-4,-7.3,-4c-4.6,0,-18.6,10.9,-42,32.6c-6.2,5.7,-11.1,10.2,-14.6,13.5l-11.1,61.9c-.2,1.1,-.6,2.9,-1,5.2c-2.5,12.6,-4,22.2,-4.4,28.9l-31.3,7.7c7.7,-33.6,13.8,-62.9,18.3,-87.7c4.6,-24.9,6.8,-41.1,6.8,-48.9c0,-4.7,-.5,-8,-1.6,-10.1c-1,-2,-2.7,-3.1,-5.1,-3.1c-1.4,0,-3.7,.9,-6.9,2.5c-3.2,1.6,-7.3,4,-12.2,7.2l-4.8,-9.3c1.3,-1.1,3.2,-2.6,5.7,-4.6c18,-14.5,30.1,-21.8,36.2,-21.8c5.8,0,10.2,2.2,13,6.6c2.8,4.4,4.2,11.2,4.2,20.5c0,3.3,-.2,7,-.5,11.1c-.4,4.1,-.9,8.4,-1.6,13Z" class="g0_1" />
<path d="M8474.2,8582.1l-16.3,15.4c-7.4,7.1,-13.2,11.9,-17.4,14.5c-4.3,2.7,-8,4,-11.3,4c-6.8,0,-12,-2.5,-15.5,-7.6c-3.6,-5,-5.4,-12.3,-5.4,-21.9c0,-7.9,2.6,-25.3,7.9,-52.2c2.9,-14.9,5.2,-26.7,6.9,-35.4l7.2,-39.5c4.5,-25.7,8.1,-46.5,10.6,-62.4c2.5,-15.9,3.8,-25.6,3.8,-29c0,-3.7,-.9,-6.5,-2.7,-8.3c-1.7,-1.7,-4.5,-2.6,-8.2,-2.6c-.7,0,-2.1,.1,-4.2,.2c-2.1,.1,-3.8,.2,-5.1,.2l-1.1,-9.7c7.6,-1.1,16,-2.5,25.2,-4.3c9.1,-1.8,19.8,-4.1,32.1,-7c-12.8,63.9,-23.2,118.8,-31.4,164.7c-8.1,46,-12.2,72,-12.2,78.1c0,3.2,.6,5.8,1.9,7.8c1.2,1.9,2.9,2.9,5,2.9c1.3,0,3,-.7,5.1,-2c2.1,-1.2,4.7,-3.2,7.7,-5.9l12,-9.7Z" class="g0_1" />
<path d="M8502.2,8666.6c3.4,4.5,7.1,7.9,11.1,10.2c4,2.3,8,3.5,11.9,3.5c10.8,0,20.5,-8.6,29,-25.9c8.6,-17.3,12.9,-38.5,12.9,-63.7c0,-30.8,-2.5,-58.3,-7.6,-82.5c-5,-24.2,-10.1,-36.3,-15.1,-36.3c-2.1,0,-4.4,1.2,-6.9,3.6c-2.4,2.4,-6.3,7.3,-11.6,14.8l-8.2,-8.2c7.7,-13.3,14.8,-23.4,21.3,-30.5c6.4,-7.1,11.8,-10.7,16.1,-10.7c10.6,0,19.3,11.8,26.1,35.5c6.9,23.6,10.3,54.1,10.3,91.6c0,5.4,-.1,10.8,-.4,16.2c-.2,5.4,-.5,10.7,-1,16l4.7,-10.6c27.3,-61,41,-98.1,41,-111.2c0,-3.4,-.5,-6.5,-1.6,-9.3c-1,-2.7,-2.8,-5.4,-5.3,-8l11.3,-11.9c2.7,-2.9,5.1,-5,7.4,-6.3c2.2,-1.3,4.5,-2,6.8,-2c3.8,0,6.7,1.3,8.8,3.7c2.1,2.5,3.2,5.8,3.2,10c0,7.5,-6,25.6,-17.9,54.1c-11.9,28.5,-27,60,-45.4,94.3c-20.2,37.4,-37.3,63.7,-51.4,79.2c-14.1,15.4,-28,23.1,-41.6,23.1c-7.2,0,-13,-1.6,-17.3,-4.9c-4.3,-3.2,-6.4,-7.5,-6.4,-12.9c0,-2,.4,-3.9,1.3,-5.7c.9,-1.8,2.6,-3.9,5.2,-6.4Z" class="g0_1" />
<path d="M8886,8400.7c-2.2,7.8,-5.3,20.1,-9.3,36.9c-1.2,4.9,-2,8.6,-2.6,10.9c6.9,0,13.9,-.1,21.1,-.3c7.2,-.1,14.8,-.4,22.8,-.8l-4.2,17.6c-3.2,-.1,-6.7,-.2,-10.6,-.2h-32.7c-5.5,24.2,-9.5,45.3,-12.2,63.3c-2.6,18.1,-3.9,33.2,-3.9,45.4c0,5.1,.8,9.2,2.5,12.1c1.7,2.9,4.1,4.4,7.1,4.4c2.4,0,6.1,-1.9,11.1,-5.6c5.1,-3.8,11.9,-9.8,20.6,-18.2l6.1,11.3c-16.8,17.3,-28.4,28.4,-34.8,33.1c-6.3,4.8,-11.6,7.1,-16,7.1c-8,0,-14.5,-3.8,-19.3,-11.4c-4.8,-7.6,-7.2,-18,-7.2,-31.1c0,-8.5,1.3,-20.8,4,-36.8c2.7,-16,7.8,-40.8,15.3,-74.4c-1.8,0,-4.3,0,-7.3,.1c-2.9,.2,-5,.2,-6,.2h-12.2l2.2,-11.8c5.3,-.2,10.3,-1.1,14.8,-2.8c4.5,-1.6,9.1,-4.2,13.6,-7.7c1.1,-4.2,2.3,-8.6,3.6,-13.3c1.4,-4.6,2.9,-9.5,4.7,-14.7Z" class="g0_1" />
<path d="M9038.6,8336.9c-5.5,24.9,-9.3,42.4,-11.4,52.5c-2.1,10,-3.6,17.4,-4.6,22.2l-15.4,80.1l29.5,-28.1c9.8,-9.4,17.3,-15.5,22.4,-18.5c5.1,-3,10,-4.5,14.7,-4.5c7.8,0,14.2,3.3,19.1,10c4.8,6.7,7.2,15.6,7.2,26.7c0,11.4,-2.8,28.9,-8.6,52.7c-5.7,23.7,-8.6,40.6,-8.6,50.7c0,3,.6,5.3,1.8,6.9c1.1,1.6,2.8,2.4,4.9,2.4c1.2,0,2.5,-.5,4,-1.3c1.6,-.9,3.1,-2.1,4.8,-3.6l13.2,-13.1l6.1,9.4l-19,19.5c-4.6,4.7,-9.2,8.3,-13.8,11c-4.5,2.7,-8.4,4.1,-11.8,4.1c-5.8,0,-10.5,-2.6,-14.2,-7.7c-3.7,-5.1,-5.5,-11.8,-5.5,-20.1c0,-9.9,3,-27.5,9,-52.6c5.9,-25.2,8.9,-43.5,8.9,-54.9c0,-4.4,-.9,-7.9,-2.8,-10.5c-1.9,-2.6,-4.3,-4,-7.2,-4c-4.3,0,-15.4,8.2,-33.2,24.6c-10,9.3,-18.1,16.7,-24.4,22.2l-10.9,61.3c-.3,1.8,-.7,4.4,-1.3,7.8c-2.1,11.3,-3.3,20.1,-3.7,26.2l-31.2,8c5,-22.2,11.3,-54.1,18.8,-95.6l1.9,-10.9l8.1,-43.9c4.4,-25.1,8.1,-46.7,11.1,-64.9c2.9,-18.1,4.3,-28.4,4.3,-30.9c0,-4.1,-.9,-7.1,-2.7,-9c-1.8,-2,-4.6,-2.9,-8.5,-2.9c-2,0,-3.6,0,-4.8,0c-1.3,.1,-2.5,.2,-3.8,.3l-1.1,-10.4c10.2,-1.4,20.2,-3,30.1,-4.8c9.8,-1.8,19.4,-3.9,28.6,-6.4Z" class="g0_1" />
<path d="M9190.7,8531.6l1.8,-.9c41.6,-21.3,62.4,-37.7,62.4,-49.3c0,-6.2,-2.3,-11.6,-6.7,-16.2c-4.4,-4.6,-9.6,-6.9,-15.6,-6.9c-9.2,0,-17.5,6.4,-24.9,19.2c-7.3,12.8,-13,30.8,-17,54.1m52.8,-12.1l-53.7,27.8v1.7c0,14,2.2,24.6,6.6,31.8c4.4,7.3,10.8,10.9,19.1,10.9c4.9,0,11.1,-2.2,18.5,-6.6c7.5,-4.4,17,-11.5,28.6,-21.3l6.2,11.1c-16.8,15.4,-30.1,26.1,-40,32.1c-9.9,6,-18.9,9,-27,9c-12.3,0,-22.3,-5.3,-30,-16c-7.7,-10.7,-11.5,-24.7,-11.5,-42c0,-12.3,2,-25.5,6.1,-39.6c4,-14.2,9.3,-26.5,15.7,-37c8.1,-12.9,17.3,-22.9,27.8,-29.9c10.4,-7,21.2,-10.6,32.3,-10.6c11.4,0,20.9,3.6,28.6,10.8c7.6,7.3,11.5,16,11.5,26.3c0,8.3,-2.3,15.2,-6.9,20.7c-4.7,5.4,-15.3,12.4,-31.9,20.8Z" class="g0_1" />
<path d="M9466.3,8583.8c3.7,4.4,7.8,7.6,12.2,9.8c4.4,2.1,9,3.2,13.9,3.2c15.9,0,29,-9.2,39.5,-27.6c10.5,-18.4,15.7,-41.9,15.7,-70.6c0,-11.4,-1.5,-20,-4.5,-25.9c-2.9,-5.8,-7.4,-8.7,-13.2,-8.7c-4.5,0,-10.8,2.7,-19,8.2c-8.2,5.5,-19.4,14.6,-33.6,27.1l-7.9,51.1c-1.2,7.2,-2,13.4,-2.4,18.7c-.5,5.2,-.7,10.2,-.7,14.7m39.1,-247.3c-2.8,13.4,-5.3,25.9,-7.5,37.5c-2.2,11.6,-4.1,21.5,-5.5,29.9l-13.1,77.1l18.9,-17.4c11.3,-10.1,19.9,-16.7,26,-19.9c6,-3.3,12,-4.9,18,-4.9c11.5,0,20.3,4.8,26.6,14.4c6.3,9.5,9.4,22.9,9.4,40.3c0,32.8,-9.9,61.4,-29.7,85.8c-19.8,24.5,-42.5,36.7,-68.2,36.7c-9.8,0,-18.5,-2.2,-25.9,-6.6c-7.5,-4.4,-13.9,-11.2,-19.4,-20.5l33.4,-204.7c.7,-4.2,1.2,-7.7,1.5,-10.4c.4,-2.7,.6,-4.7,.6,-6.2c0,-3.8,-1,-6.6,-2.8,-8.3c-1.9,-1.7,-4.9,-2.5,-9,-2.5c-2.2,0,-3.9,0,-5.1,.1c-1.2,.1,-2.3,.3,-3.5,.6l-1.1,-9.7c8.2,-1.2,16.9,-2.7,26.1,-4.5c9.2,-1.8,19.3,-4.1,30.3,-6.8Z" class="g0_1" />
<path d="M9653,8531.6l1.7,-.9c41.6,-21.3,62.4,-37.7,62.4,-49.3c0,-6.2,-2.2,-11.6,-6.6,-16.2c-4.5,-4.6,-9.7,-6.9,-15.6,-6.9c-9.3,0,-17.6,6.4,-24.9,19.2c-7.4,12.8,-13.1,30.8,-17,54.1m52.8,-12.1l-53.7,27.8v1.7c0,14,2.2,24.6,6.6,31.8c4.4,7.3,10.7,10.9,19,10.9c5,0,11.1,-2.2,18.6,-6.6c7.4,-4.4,17,-11.5,28.6,-21.3l6.1,11.1c-16.8,15.4,-30.1,26.1,-40,32.1c-9.9,6,-18.9,9,-27,9c-12.3,0,-22.3,-5.3,-29.9,-16c-7.7,-10.7,-11.5,-24.7,-11.5,-42c0,-12.3,2,-25.5,6,-39.6c4.1,-14.2,9.3,-26.5,15.8,-37c8,-12.9,17.3,-22.9,27.7,-29.9c10.5,-7,21.2,-10.6,32.4,-10.6c11.3,0,20.8,3.6,28.5,10.8c7.7,7.3,11.5,16,11.5,26.3c0,8.3,-2.3,15.2,-6.9,20.7c-4.6,5.4,-15.2,12.4,-31.8,20.8Z" class="g0_1" />
<path d="M9888.5,8470.1l-9.8,9.3l-1.2,-1c-13.4,-12.2,-23.5,-18.3,-30.4,-18.3c-6.6,0,-12,2,-16.3,5.9c-4.3,3.9,-6.4,8.9,-6.4,15c0,9.4,8.1,20.9,24.4,34.5c2,1.6,3.5,2.8,4.4,3.6c12.1,10.4,20,18.4,23.8,24.3c3.8,5.9,5.7,12.2,5.7,19c0,13,-6.4,25.1,-19.2,36.4c-12.8,11.2,-27.5,16.8,-43.9,16.8c-11.6,0,-21.2,-2,-28.8,-5.9c-7.6,-4,-11.4,-8.9,-11.4,-14.6c0,-2.3,.3,-4.2,1.1,-5.8c.7,-1.7,2.2,-3.7,4.7,-6.2l9.3,-8.6c7.7,8.6,14.2,14.5,19.3,17.9c5.2,3.4,10.2,5.1,15.2,5.1c7.3,0,13.6,-2.5,18.9,-7.4c5.2,-5,7.8,-10.9,7.8,-17.7c0,-7.7,-8.1,-18.7,-24.1,-33c-4.2,-3.8,-7.4,-6.7,-9.7,-8.8c-9.3,-8.5,-15.8,-15.5,-19.3,-21.1c-3.5,-5.6,-5.3,-11.3,-5.3,-17.1c0,-12.5,6.4,-24.2,19.1,-35.1c12.7,-10.9,26.6,-16.4,41.7,-16.4c10.1,0,18.5,1.9,25.3,5.7c6.7,3.7,10.1,8.1,10.1,13.1c0,2,-.5,3.9,-1.3,5.6c-.8,1.7,-2,3.3,-3.7,4.8Z" class="g0_1" />
<path d="M10014.8,8400.7c-2.2,7.8,-5.3,20.1,-9.3,36.9c-1.2,4.9,-2.1,8.6,-2.7,10.9c7,0,14,-.1,21.2,-.3c7.2,-.1,14.8,-.4,22.8,-.8l-4.2,17.6c-3.2,-.1,-6.7,-.2,-10.6,-.2h-32.7c-5.5,24.2,-9.6,45.3,-12.2,63.3c-2.6,18.1,-3.9,33.2,-3.9,45.4c0,5.1,.8,9.2,2.5,12.1c1.7,2.9,4.1,4.4,7.1,4.4c2.4,0,6.1,-1.9,11.1,-5.6c5,-3.8,11.9,-9.8,20.6,-18.2l6.1,11.3c-16.9,17.3,-28.5,28.4,-34.8,33.1c-6.3,4.8,-11.7,7.1,-16,7.1c-8.1,0,-14.5,-3.8,-19.3,-11.4c-4.8,-7.6,-7.2,-18,-7.2,-31.1c0,-8.5,1.3,-20.8,4,-36.8c2.7,-16,7.8,-40.8,15.3,-74.4c-1.9,0,-4.3,0,-7.3,.1c-3,.2,-5,.2,-6,.2h-12.2l2.1,-11.8c5.4,-.2,10.4,-1.1,14.9,-2.8c4.5,-1.6,9,-4.2,13.6,-7.7c1.1,-4.2,2.3,-8.6,3.6,-13.3c1.4,-4.6,2.9,-9.5,4.7,-14.7Z" class="g0_1" />

</svg>
